HIERARCHY
ROOT Hips
{
  OFFSET 263.056 91.6644 -274.608
  CHANNELS 6 Xposition Yposition Zposition Zrotation Xrotation Yrotation
  JOINT LeftUpLeg
  {
    OFFSET 8.64259 1.95398 -2.38835
    CHANNELS 3 Zrotation Xrotation Yrotation
    JOINT LeftLeg
    {
      OFFSET 43.7702 0 0
      CHANNELS 3 Zrotation Xrotation Yrotation
      JOINT LeftFoot
      {
        OFFSET 40.6238 0 0
        CHANNELS 3 Zrotation Xrotation Yrotation
        JOINT LeftToeBase
        {
          OFFSET 12.7242 0 0
          CHANNELS 3 Zrotation Xrotation Yrotation
          End Site
          {
            OFFSET 0 0 0
          }
        }
      }
    }
  }
  JOINT RightUpLeg
  {
    OFFSET -8.2249 1.95398 -2.59336
    CHANNELS 3 Zrotation Xrotation Yrotation
    JOINT RightLeg
    {
      OFFSET 43.5653 0 0
      CHANNELS 3 Zrotation Xrotation Yrotation
      JOINT RightFoot
      {
        OFFSET 40.6238 0 0
        CHANNELS 3 Zrotation Xrotation Yrotation
        JOINT RightToeBase
        {
          OFFSET 12.7242 0 0
          CHANNELS 3 Zrotation Xrotation Yrotation
          End Site
          {
            OFFSET 0 0 0
          }
        }
      }
    }
  }
  JOINT Spine
  {
    OFFSET 0.165834 0.87714 6.61349
    CHANNELS 3 Zrotation Xrotation Yrotation
    JOINT Spine1
    {
      OFFSET 7.38963 1.71661e-005 0
      CHANNELS 3 Zrotation Xrotation Yrotation
      JOINT Spine2
      {
        OFFSET 11.9445 1.14441e-005 0
        CHANNELS 3 Zrotation Xrotation Yrotation
        JOINT Spine3
        {
          OFFSET 14.7254 4.19617e-005 0
          CHANNELS 3 Zrotation Xrotation Yrotation
          JOINT Spine4
          {
            OFFSET 10.9679 0 0
            CHANNELS 3 Zrotation Xrotation Yrotation
            JOINT RightShoulder
            {
              OFFSET 2.46616 -1.6653 3.69651
              CHANNELS 3 Zrotation Xrotation Yrotation
              JOINT RightArm
              {
                OFFSET 13.0012 0 0
                CHANNELS 3 Zrotation Xrotation Yrotation
                JOINT RightForeArm
                {
                  OFFSET 28.7848 1.52588e-005 0
                  CHANNELS 3 Zrotation Xrotation Yrotation
                  JOINT RightHand
                  {
                    OFFSET 26.5688 1.52588e-005 0
                    CHANNELS 3 Zrotation Xrotation Yrotation
                    End Site
                    {
                      OFFSET 0 0 0
                    }
                  }
                }
              }
            }
            JOINT LeftShoulder
            {
              OFFSET 2.38034 -1.29275 -3.7523
              CHANNELS 3 Zrotation Xrotation Yrotation
              JOINT LeftArm
              {
                OFFSET 16.3182 6.10352e-005 0
                CHANNELS 3 Zrotation Xrotation Yrotation
                JOINT LeftForeArm
                {
                  OFFSET 27.0901 0 0
                  CHANNELS 3 Zrotation Xrotation Yrotation
                  JOINT LeftHand
                  {
                    OFFSET 24.5451 1.52588e-005 0
                    CHANNELS 3 Zrotation Xrotation Yrotation
                    End Site
                    {
                      OFFSET 0 0 0
                    }
                  }
                }
              }
            }
            JOINT Neck
            {
              OFFSET 5.0226 -0.0266342 0
              CHANNELS 3 Zrotation Xrotation Yrotation
              JOINT Head
              {
                OFFSET 6.69364 2.86102e-005 0
                CHANNELS 3 Zrotation Xrotation Yrotation
                End Site
                {
                  OFFSET 0 0 0
                }
              }
            }
          }
        }
      }
    }
  }
}
MOTION
Frames:	6
Frame Time:	0.0416667
36.1045 97.6826 -250.216 -48.8032 -88.1311 -49.542 -173.426 4.67653 87.23 -8.63635 16.1041 -1.87584 61.4973 6.39535 12.4314 31.8659 3.96684 -10.7249 177.803 6.05947 91.3275 -15.5057 1.33381 0.0167428 67.8907 -2.36215 -1.2513 29.486 -0.730341 13.5439 -0.140112 7.08638 -89.8668 12.7013 -0.214618 0.291483 1.03035 -0.201576 0.300639 -21.5048 -0.292293 0.213507 -1.49214 -0.292297 0.213505 77.2815 -54.2276 -118.099 28.6296 -6.78207 14.2611 -24.061 -33.346 -43.409 -4.17232 -0.582366 5.22626 -103.908 -43.9799 55.723 -31.4382 9.25078 6.71805 3.69769 11.4316 -28.1836 9.24414 0.913132 5.47267 13.4286 1.73482 2.09456 1.13397 1.12038 -0.788679 
36.0348 97.6312 -250.281 -61.4699 -87.1937 -62.1238 -173.369 4.95291 87.3029 -9.01364 15.5118 -1.86796 61.4945 6.58806 12.8098 31.8366 3.95569 -11.0937 178.122 6.45107 91.5339 -15.8564 0.414011 -0.278421 67.9386 -2.38962 -1.26411 29.8009 -0.676578 13.614 -0.129027 7.10123 -89.9115 12.6716 -0.213984 0.202077 1.00063 -0.204883 0.211298 -21.5346 -0.264825 0.128422 -1.52197 -0.26482 0.128428 79.6478 -52.5305 -115.414 28.9178 -8.90004 11.8117 -12.5411 -19.5171 -40.0583 -4.09338 -0.531216 6.97561 -104.053 -43.5716 55.3116 -32.1972 8.96949 6.50541 3.31525 10.5178 -27.7205 11.609 1.06796 5.05564 13.7926 2.20925 2.27378 -0.410856 1.53354 -0.984699 
36.0398 97.616 -250.268 -68.3931 -86.4322 -68.968 -173.386 5.2816 87.279 -9.95659 13.7284 -1.63561 62.2051 6.73518 12.0163 31.5219 3.69083 -11.6078 178.213 6.42224 91.6111 -15.7805 -0.142493 -0.364734 67.9364 -2.50677 -1.32711 29.8304 -0.684456 13.8573 -0.125879 7.1042 -89.9171 12.6656 -0.210435 0.190336 0.994666 -0.201851 0.199407 -21.5406 -0.257906 0.118297 -1.52792 -0.257911 0.118285 79.0633 -52.7285 -116.175 26.9223 -9.56476 10.4738 -12.7022 -17.6069 -43.5057 -5.97871 -0.680092 6.76465 -104.225 -43.7069 55.1178 -31.2598 8.74391 6.37251 3.72899 10.4537 -28.6599 11.0086 1.01517 5.03707 12.8023 2.43979 1.90231 0.387691 1.88351 -0.44259 
36.0195 97.5306 -250.013 -68.7317 -86.2736 -69.47 -173.424 5.15452 87.1597 -9.87433 15.4268 -1.91142 61.2597 7.27059 14.5655 32.9487 5.00255 -12.0811 178.256 6.38582 91.5434 -16.0666 -0.343393 -0.544924 68.6017 -2.78417 -1.46394 29.4938 -0.689056 12.8557 -0.133059 7.11338 -89.8879 12.6473 -0.21073 0.248758 0.976323 -0.199576 0.257781 -21.5589 -0.275756 0.173923 -1.54621 -0.275755 0.173916 79.187 -52.5184 -116.08 26.0926 -9.97653 8.66934 -12.7955 -16.3905 -45.8368 -6.03275 -0.67453 6.59268 -104.627 -43.7158 54.5194 -30.3595 8.11312 6.07173 4.12271 9.80544 -29.7454 12.3924 1.06498 4.53001 12.7517 2.33941 2.07976 0.251528 1.75206 -0.142989 
36.0148 97.4484 -249.748 -70.0053 -86.3803 -70.9027 -173.756 5.05707 86.7891 -10.3302 14.6635 -1.58835 61.4805 8.0563 14.6509 33.2818 5.28986 -11.4017 178.244 6.44713 91.4339 -16.8454 0.109601 -0.688217 69.2793 -2.90307 -1.50922 29.0963 -0.812683 13.729 -0.134432 7.1277 -89.8486 12.6187 -0.194731 0.325374 0.947705 -0.18022 0.333629 -21.5874 -0.283521 0.251809 -1.57471 -0.28351 0.251817 78.9792 -52.6309 -116.334 25.9489 -9.53022 7.29443 -13.2043 -15.9345 -46.595 -7.53272 -0.819543 6.95536 -104.385 -43.7252 54.8849 -29.7858 8.00961 5.44841 4.58627 9.3408 -31.6459 12.5876 1.13236 4.92382 12.303 2.60356 2.5791 0.0334613 1.89602 -0.171211 
36.1649 97.4053 -249.286 -70.6847 -86.8703 -71.5615 -173.992 4.76094 86.5712 -10.8798 13.5604 -1.17377 62.3483 8.70846 13.634 32.5883 4.67779 -12.0902 177.994 5.82343 91.2548 -16.7318 -0.253873 -0.57148 69.5024 -2.88713 -1.49195 29.0759 -0.762724 12.8587 -0.120304 7.1751 -89.8252 12.5238 -0.155717 0.367162 0.852842 -0.139408 0.373651 -21.6821 -0.258865 0.30339 -1.66944 -0.258864 0.303384 78.8767 -53.0466 -116.317 25.3591 -9.86494 5.9116 -13.572 -16.4884 -46.6769 -6.67138 -0.719018 6.33425 -104.139 -43.7044 55.246 -29.6307 7.64948 4.51656 5.2885 9.38183 -33.2715 13.4485 1.19005 4.83054 12.0923 2.59623 2.72777 -0.572341 1.85842 -0.215005 
